<svg width="296" height="268" viewBox="0 0 296 268" fill="none" xmlns="http://www.w3.org/2000/svg">
<g clip-path="url(#clip0_1_2)">
<path d="M148 268C66.415 268 0 207.868 0 134C0 60.1325 66.415 0 148 0C229.585 0 296 60.1325 296 134C296 207.868 229.585 268 148 268ZM272.813 152.336C268.497 151.107 233.717 141.694 194.077 147.445C210.604 188.583 217.35 222.083 218.645 229.051C247.012 211.686 267.189 184.161 272.85 152.336H272.813ZM197.395 239.525C195.508 229.475 188.145 194.501 170.385 152.76L169.571 152.983C98.161 175.484 72.631 220.263 70.411 224.45C91.7477 239.614 118.758 248.637 147.988 248.637C165.501 248.637 182.151 245.399 197.321 239.547L197.395 239.525ZM54.0817 210.715C56.943 206.248 91.6367 154.267 156.843 135.172C158.508 134.67 160.173 134.234 161.838 133.832C158.631 127.3 155.178 120.801 151.577 114.403C88.43 131.488 27.2073 130.762 21.6573 130.65L21.608 134.134C21.608 163.536 33.9167 190.381 54.094 210.682L54.0817 210.715ZM24.235 110.718C29.9083 110.807 81.992 111.008 141.118 96.7815C120.176 63.0805 97.5813 34.7172 94.2513 30.5855C58.8793 45.6605 32.4613 75.1405 24.2473 110.651L24.235 110.718ZM118.4 22.914C121.878 27.1573 144.855 55.4537 165.538 89.914C210.493 74.6715 229.548 51.5007 231.805 48.575C209.482 30.5967 180.128 19.698 148 19.698C137.825 19.698 127.897 20.8147 118.4 22.8805V22.914ZM245.865 61.8075C243.176 65.0458 222 89.646 175.269 106.921C178.229 112.393 181.066 117.92 183.656 123.515C184.642 125.525 185.506 127.534 186.369 129.433C228.426 124.631 270.236 132.336 274.429 133.118C274.182 106.094 263.576 81.3045 245.939 61.8745L245.865 61.8075Z" fill="#8F8F8F"/>
</g>
<defs>
<clipPath id="clip0_1_2">
<rect width="296" height="268" fill="white"/>
</clipPath>
</defs>
</svg>
